<svg id="visual" viewBox="0 0 900 600" width="900" height="600" xmlns="http://www.w3.org/2000/svg" xmlns:xlink="http://www.w3.org/1999/xlink" version="1.1"><g transform="translate(457.8837283034038 268.99415485666975)"><path d="M141.3 -179.3C179.5 -166.7 204.3 -120.6 221.4 -71.2C238.4 -21.8 247.6 30.8 231.5 73.7C215.5 116.6 174.2 149.7 131.4 181.5C88.6 213.2 44.3 243.6 -1.2 245.2C-46.6 246.8 -93.3 219.7 -131.1 186.3C-169 153 -198.2 113.4 -222.4 65.9C-246.6 18.3 -266 -37.2 -249.5 -78.9C-232.9 -120.6 -180.5 -148.5 -133 -158C-85.4 -167.6 -42.7 -158.8 4.4 -164.9C51.5 -170.9 103.1 -191.9 141.3 -179.3" fill="#FFD60A"></path></g></svg>